<?xml version="1.0" standalone="no"?><!DOCTYPE svg PUBLIC "-//W3C//DTD SVG 1.1//EN" "http://www.w3.org/Graphics/SVG/1.1/DTD/svg11.dtd"><svg version="1.0" xmlns="http://www.w3.org/2000/svg" xmlns:xlink="http://www.w3.org/1999/xlink" width="100%" height="100%" viewBox="0 0 340.000000 250.000000" preserveAspectRatio="xMidYMid meet" color-interpolation-filters="sRGB" style="margin: auto;"><rect x="0" y="0" width="100%" height="100%" fill="#ffffff" fill-opacity="1"></rect><g fill="#45818E" transform="translate(45.889739990234375,100.54000091552734)"><g><g><rect stroke-width="2" x="0" y="0" width="248.22052001953125" height="48.91999816894531" fill-opacity="0"></rect></g><g transform="translate(0,0)"><g><g><rect stroke-width="2" x="0" y="0" width="83.83000183105469" height="48.91999816894531" fill-opacity="0" stroke="rgb(69, 129, 142)"></rect></g><g transform="translate(5,5)"><g fill="#45818E"><g transform="scale(1)"><path d="M24.16 0L24.16 0L7.92 0Q6.44 0 5.52-0.92Q4.61-1.83 4.61-3.32L4.61-3.32L4.61-33.77Q4.61-37.53 8.37-37.53Q12.13-37.53 12.13-33.77L12.13-33.77L12.13-6.29L24.16-6.29Q27.33-6.29 27.33-3.12L27.33-3.12Q27.33 0 24.16 0ZM41.35-33.77L41.35-33.77L41.35-3.76Q41.35 0 37.58 0Q33.82 0 33.82-3.76L33.82-3.76L33.82-33.77Q33.82-37.53 37.58-37.53Q41.35-37.53 41.35-33.77ZM63.93 0L63.93 0L53.73 0Q52.29 0 51.40-0.89Q50.51-1.78 50.51-3.22L50.51-3.22L50.51-34.22Q50.51-35.70 51.42-36.62Q52.34-37.53 53.83-37.53L53.83-37.53L62.94-37.53Q76.50-37.53 76.50-28.27L76.50-28.27Q76.50-25.60 75.12-23.32Q73.73-21.04 71.40-20.20L71.40-20.20L71.40-19.91Q74.62-19.16 76.53-16.91Q78.44-14.66 78.44-11.04L78.44-11.04Q78.44-5.60 74.45-2.80Q70.46 0 63.93 0ZM62.49-31.79L58.03-31.79L58.03-22.28L62.39-22.28Q69.22-22.28 69.22-27.18L69.22-27.18Q69.22-29.61 67.59-30.70Q65.96-31.79 62.49-31.79L62.49-31.79ZM63.23-16.69L58.03-16.69L58.03-5.79L63.23-5.79Q71.16-5.79 71.16-11.49L71.16-11.49Q71.16-16.69 63.23-16.69L63.23-16.69Z" transform="translate(-4.605086392195767, 38.22716876102293)"></path></g></g></g></g><g transform="translate(83.83000183105469,0)"><g><rect stroke-width="2" x="0" y="0" width="164.39051818847656" height="48.91999816894531" fill-opacity="0"></rect></g><g transform="translate(5,5)"><g fill="#0bbf64"><g transform="scale(1)"><path d="M25.95-2.67L25.95-2.67Q22.18 0.69 15.80 0.69L15.80 0.69Q9.80 0.69 4.65-2.67L4.65-2.67Q2.13-4.75 4.21-7.23L4.21-7.23Q6.44-9.90 9.36-7.77L9.36-7.77Q12.68-5.79 15.99-5.79L15.99-5.79Q18.87-5.79 20.40-6.93Q21.94-8.07 21.94-10.10L21.94-10.10Q21.94-11.09 21.61-11.81Q21.29-12.53 20.33-13.17Q19.36-13.82 18.72-14.11Q18.07-14.41 16.34-15.15L16.34-15.15L11.29-17.28Q3.71-20.45 3.71-27.38L3.71-27.38Q3.71-32.04 7.35-35.13Q10.99-38.23 16.69-38.23L16.69-38.23Q22.04-38.23 26.29-35.26L26.29-35.26Q28.47-33.37 26.64-31.20L26.64-31.20Q24.56-28.67 22.04-30.45L22.04-30.45Q19.46-31.79 16.69-31.79L16.69-31.79Q14.16-31.79 12.70-30.73Q11.24-29.66 11.24-27.83L11.24-27.83Q11.24-26.10 12.58-25.13Q13.91-24.16 16.69-23.07L16.69-23.07Q16.98-22.98 17.13-22.93L17.13-22.93L22.04-20.85Q25.70-19.31 27.66-16.91Q29.61-14.51 29.61-10.65L29.61-10.65Q29.61-5.89 25.95-2.67ZM57.89-3.71L57.89-16.24L43.72-16.24L43.72-3.76Q43.72 0 39.96 0Q36.20 0 36.20-3.76L36.20-3.76L36.20-33.77Q36.20-37.53 39.96-37.53Q43.72-37.53 43.72-33.77L43.72-33.77L43.72-22.78L57.89-22.78L57.89-33.82Q57.89-37.53 61.65-37.53L61.65-37.53Q65.36-37.53 65.36-33.82L65.36-33.82L65.36-3.71Q65.36 0 61.65 0L61.65 0Q57.89 0 57.89-3.71L57.89-3.71ZM95.02 0L95.02 0L77.89 0Q76.40 0 75.49-0.92Q74.57-1.83 74.57-3.32L74.57-3.32L74.57-34.22Q74.57-35.70 75.49-36.62Q76.40-37.53 77.89-37.53L77.89-37.53L94.53-37.53Q97.60-37.53 97.60-34.41Q97.60-31.29 94.53-31.29L94.53-31.29L82.10-31.29L82.10-22.63L92.10-22.63Q95.27-22.63 95.27-19.46L95.27-19.46Q95.27-16.34 92.10-16.34L92.10-16.34L82.10-16.34L82.10-6.29L95.02-6.29Q98.14-6.29 98.14-3.12L98.14-3.12Q98.14 0 95.02 0ZM125.28 0L125.28 0L109.04 0Q107.55 0 106.63-0.92Q105.72-1.83 105.72-3.32L105.72-3.32L105.72-33.77Q105.72-37.53 109.48-37.53Q113.25-37.53 113.25-33.77L113.25-33.77L113.25-6.29L125.28-6.29Q128.45-6.29 128.45-3.12L128.45-3.12Q128.45 0 125.28 0ZM154.49 0L154.49 0L138.25 0Q136.77 0 135.85-0.92Q134.93-1.83 134.93-3.32L134.93-3.32L134.93-33.77Q134.93-37.53 138.70-37.53Q142.46-37.53 142.46-33.77L142.46-33.77L142.46-6.29L154.49-6.29Q157.66-6.29 157.66-3.12L157.66-3.12Q157.66 0 154.49 0Z" transform="translate(-3.269723151170565, 38.22716876102293)"></path></g></g></g></g></g></g></g></svg>